<?xml version="1.0" encoding="UTF-8" standalone="no"?>
<svg xmlns:dc="http://purl.org/dc/elements/1.1/" xmlns:cc="http://creativecommons.org/ns#"
     xmlns:rdf="http://www.w3.org/1999/02/22-rdf-syntax-ns#" xmlns:svg="http://www.w3.org/2000/svg"
     xmlns="http://www.w3.org/2000/svg" xmlns:sodipodi="http://sodipodi.sourceforge.net/DTD/sodipodi-0.dtd"
     xmlns:inkscape="http://www.inkscape.org/namespaces/inkscape" version="1.1" id="svgpoint" x="0px" y="0px"
     width="930.8124px" height="749.8211px" viewBox="0 0 900 725" enable-background="new 0 0 900 725"
     xml:space="preserve" sodipodi:docname="mapa.svg" inkscape:version="0.92.3 (2405546, 2018-03-11)">
     <metadata id="metadata5919">
          <rdf:RDF>
               <cc:Work rdf:about="">
                    <dc:format>image/svg+xml</dc:format>
                    <dc:type rdf:resource="http://purl.org/dc/dcmitype/StillImage" />
                    <dc:title />
               </cc:Work>
          </rdf:RDF>
     </metadata>
     <defs id="defs5917" />
     <sodipodi:namedview pagecolor="#ffffff" bordercolor="#666666" borderopacity="1" objecttolerance="10"
          gridtolerance="10" guidetolerance="10" inkscape:pageopacity="0" inkscape:pageshadow="2"
          inkscape:window-width="1920" inkscape:window-height="1017" id="namedview5915" showgrid="false"
          inkscape:zoom="0.89022407" inkscape:cx="1005.7927" inkscape:cy="352.16841" inkscape:window-x="-8"
          inkscape:window-y="-8" inkscape:window-maximized="1" inkscape:current-layer="svgpoint" />
     <rect id="BACKGROUND" x="-0.104" y="1.398" fill="#FFFFFF" stroke="#FFFFFF" stroke-width="0.5669"
          stroke-miterlimit="2.4142" width="899.092" height="726.922" />
     <g id="AM" data-errors="0" hint-index="0" class="q" data-qtext="Amazonas" data-qimg="null" data-wikipedialink=""
          data-infotext="" data-infoimgurl="" data-sayafter="">

          <linearGradient id="SVGID_1_" gradientUnits="userSpaceOnUse" x1="256.4282" y1="481.407" x2="256.4282"
               y2="273.281" gradientTransform="matrix(1 0 0 -1 0 583)">
               <stop offset="0" style="stop-color:#00C800" id="stop5707" />
               <stop offset="1" style="stop-color:#00C800" id="stop5709" />
          </linearGradient>
          <path fill="#808080" stroke="#FFFFFF" stroke-width="0.5" stroke-linejoin="round" stroke-miterlimit="10"
               d=" M367.111,253.987c2.625-3.415,39.089-78.693,35.945-79.224c-3.156-0.518-7.347-4.449-14.434-7.076 c-7.076-2.624-9.701-1.305-14.422-7.088c-4.721-5.768-7.865-6.816-9.701-8.911c-1.836-2.096-3.23-4.463-3.193-8.135 c0.038-3.673,0.628-6.952,0-7.643c-0.358-0.394-0.986-1.158-1.455-1.75c-1.22,0.542-2.304,0.16-6.656-0.616 c-5.189-0.925-7.421,0.185-10.194,0.554c-2.786,0.371-1.122,2.971-6.126,6.854c-5.004,3.896,0,2.786,0,5.189 c0,2.416-1.48,4.833-4.266,5.758c-2.773,0.924-4.265-0.741-6.669-2.787c-2.415-2.033-6.298-0.555-8.899-1.479 s-1.294,3.144-3.341,5.559c-2.035,2.417,0.37,7.052,0,9.086c-0.369,2.033-2.035,1.109-4.82,0c-2.774-1.11-3.71-3.527-6.114-5.56 c-2.417-2.045-1.48-3.895-1.48-7.236c0-3.328,0-5.004-1.959-7.039c-1.96-2.045-1.379-4.819-1.196-9.085 c0.185-4.264,2.59-7.05,0-11.685c-2.601-4.636-1.109-4.82-1.479-9.824c-0.37-5.005-2.232-5.375-7.051-7.791 c-3.032-1.505-4.265-2.121-5.166-2.465c-0.664,0.715-3.216,1.232-4.128,1.75c-1.431,0.826-5.338,2.675-8.013,3.698 c-2.663,1.035-3.082,4.733-4.931,8.013c-1.849,3.291-5.744,3.907-11.5,4.733c-5.758,0.814-3.908,5.547-6.57,8.21 c-2.675,2.675-5.141-1.43-6.163-3.279c-1.035-1.849-5.35,0.197-8.432,2.872s-3.082,0.21-6.569-1.442 c-3.489-1.639-3.908-3.279-7.397-6.36s-2.058-6.78-2.058-10.071s-2.663-3.907-4.931-3.907c-2.256,0-4.931,0.419-5.338,3.007 c-0.407,2.601-1.442,4.191-3.29,1.517c-1.849-2.675-5.338-1.233-5.745,0c-0.418,1.232-0.418,2.256-5.966,3.698 c-5.547,1.442-9.861,0-13.966,0c-4.104,0-8.221,0-9.245,4.524c-1.023,4.511,2.872,4.511,6.57,5.128 c3.698,0.616,3.082,0.209,6.78,2.465c3.697,2.268,2.058,6.163-2.256,5.547s-5.141-0.813-6.989-0.813 c-1.849,0-5.955,5.128-6.78,9.861c-0.814,4.721,3.082,8.629,7.199,11.711c4.106,3.082,4.931,7.593,5.128,12.943 c0.21,5.337-1.43,8.012-1.43,13.757c0,5.756-1.849,10.896-3.698,17.676s-1.849,14.989-2.268,19.106 c-0.407,4.105-1.639,2.663-3.082,1.233c-1.431-1.442-8.21-2.058-11.094-2.884c-2.872-0.814-1.023,2.465-3.279,3.908 c-2.268,1.442-6.583,0.826-7.815,3.291c-1.232,2.465-6.57,1.023-9.442,1.639c-2.884,0.616-3.291,2.675-6.582,6.163 c-3.28,3.489-3.896,1.023-6.163,3.489c-2.256,2.465-2.466,5.547-5.338,13.362c-2.872,7.803,0,6.36-1.232,11.71 c-1.232,5.337-4.314,3.895-7.396,6.163c-3.082,2.256-0.21,3.489,0,6.57c0,0-0.024,0.036-0.087,0.123 c0.431,0.458,1.035,0.777,2.639,0.863c2.748,0.148,3.82,0.456,5.804,1.984c1.986,1.529,2.749,1.984,7.779,3.513 c5.041,1.529,5.041,1.221,9.466,1.677c4.438,0.456-3.513-1.369,6.879,0c10.379,1.368,8.394,0.616,12.055,0.911 c3.661,0.308,5.352,0.469,7.939,1.986c2.6,1.528,4.13,1.528,7.334,2.749c3.206,1.219,3.97,0.616,6.866,2.748 c2.896,2.145,8.703,2.293,10.849,3.821c2.131,1.529,2.44,2.441,6.1,4.735c3.662,2.293,2.896,2.132,7.483,4.117 c4.573,1.985,5.497,2.601,8.85,4.277c3.366,1.677,9.628,4.586,10.083,4.586c0.457,0,4.117,0.604,6.559,0.913 c0.419,0.048,0.703,0.099,0.887,0.135c1.38-1.294,2.921-1.972,4.585-4.315c2.022-2.823,10.517-4.24,13.745-3.637 c3.229,0.605,9.295,1.541,11.315-0.136c2.022-1.688,3.034-2.292,7.889-5.324c3.576-2.231,4.081-1.725,5.141-3.649 c-0.111-0.383-0.161-0.79-0.161-1.209c0-1.96,1.172-3.647,2.873-4.375c0,0,0-0.012,0.013-0.012 c2.009-3.587,3.575-3.957,5.275-5.313c2.022-1.615,7.483-7.273,7.483-7.273s2.218-0.604,6.065,3.439 c3.833,4.044,3.439,4.241,8.887,6.865c1.787,0.865,3.242,1.357,4.462,1.677c0.876-0.346,1.985-0.678,2.367-0.678 c0.541,0,6.361,2.367,10.341,3.118c3.982,0.754,2.369,1.615,9.677,0c7.321-1.614,8.296-1.934,13.67-1.614 c5.386,0.322,4.413,1.566,13.67,0.519c9.256-1.048,14.853-4.278,14.101-9.011c-0.752-4.746-0.862-6.25,1.393-11.415 c0.665-1.517,0.357-2.994-0.345-4.413C369.256,259.509,365.263,256.403,367.111,253.987z"
               pointer-events="auto" id="path5712" />
     </g>
     <g id="RR" data-errors="0" hint-index="0" class="q" data-qtext="Roraima" data-qimg="null" data-wikipedialink=""
          data-infotext="" data-infoimgurl="" data-sayafter="" inkscape:label="#RO">

          <linearGradient id="SVGID_2_" gradientUnits="userSpaceOnUse" x1="310.7802" y1="419.5203" x2="310.7802"
               y2="535.4662" gradientTransform="matrix(1 0 0 -1 0 583)">
               <stop offset="0" style="stop-color:#F15A24" id="stop5715" />
               <stop offset="1" style="stop-color:#FF811E" id="stop5717" />
          </linearGradient>
          <path fill="#808080" stroke="#FFFFFF" stroke-width="0.5" stroke-miterlimit="10"
               d="M360.603,133.728 c-0.272,0.185-0.518,0.32-0.753,0.431c-1.22,0.542-2.304,0.16-6.656-0.616c-5.189-0.925-7.421,0.185-10.194,0.554 c-2.786,0.371-1.122,2.971-6.126,6.854c-5.004,3.896,0,2.786,0,5.189c0,2.416-1.48,4.833-4.266,5.758 c-2.773,0.924-4.265-0.741-6.669-2.787c-2.415-2.033-6.298-0.555-8.899-1.479s-1.294,3.144-3.341,5.559 c-2.035,2.417,0.37,7.052,0,9.086c-0.369,2.033-2.035,1.109-4.82,0c-2.774-1.11-3.71-3.527-6.114-5.56 c-2.417-2.045-1.48-3.895-1.48-7.236c0-3.328,0-5.004-1.959-7.039c-1.96-2.045-1.379-4.819-1.196-9.085 c0.185-4.264,2.59-7.05,0-11.685c-2.601-4.636-1.109-4.82-1.479-9.824c-0.37-5.005-2.232-5.375-7.051-7.791 c-3.032-1.505-4.265-2.121-5.166-2.465c0.383-0.431,0.136-0.925-1.454-1.529c-4.314-1.652-5.338-2.465-8.013-2.268 c-2.675,0.21-3.489-0.407-3.489-3.279c0-2.884-0.418-3.291-2.058-6.163c-1.639-2.884,0.825-5.966-2.675-9.664 c-3.489-3.698-8.629-9.442-5.548-10.059c3.082-0.616,6.99-4.733,8.838,0c1.849,4.722,4.105,7.593,6.163,4.931 c2.059-2.675,7.803-5.349,9.245-2.885c1.442,2.465,1.849,4.931,5.338,3.082c3.5-1.849,3.082-6.36,9.245-6.36 s4.524,1.466,9.862-1.011c5.349-2.49,6.372-1.873,11.303-3.92c4.931-2.059,9.862-4.314,8.013-7.605s8.013-11.501,11.094-4.722 c3.082,6.78-3.698,9.443,0,11.094c3.697,1.639,9.035,8.826,7.186,13.966s-6.779,9.861-5.337,16.025 c1.441,6.163,3.907,11.304,4.721,15.002c0.825,3.698,1.035,5.954,5.547,9.245c3.414,2.477,5.19,5.424,7.262,5.399 c0.282,1.701,1.047,4.696,0.924,5.991C360.418,128.723,362.28,132.619,360.603,133.728z"
               pointer-events="auto" id="path5720" />
     </g>
     <g id="PA" data-errors="0" hint-index="0" class="q" data-qtext="Pará" data-qimg="null" data-wikipedialink=""
          data-infotext="" data-infoimgurl="" data-sayafter="">
          <path fill="#808080" stroke="#FFFFFF" stroke-miterlimit="10"
               d="M579.585,159.183V169.5c0,5.756-2.33,6.163-4.389,9.245 c-2.057,3.082-2.291,4.93-3.524,10.884c-1.232,5.966-5.368,7.199-7.414,11.303c-2.058,4.105-12.926,14.028-15.392,16.789 c-1.615,1.836-5.576,4.648-8.707,7.088c-1.628,1.27-3.047,2.44-3.787,3.316c-2.158,2.539,2.082,3.857,5.854,7.013 c3.784,3.156,0.235,2.921-1.762,6.238c-2.011,3.315-1.235,7.088-4.094,9.861c-2.848,2.773-7.397,4.388-8.938,6.163 c-1.541,1.774-0.924,3.315-2.92,7.937c-2.01,4.623,0.147,4.315,1.849,7.163c1.688,2.847-0.235,3.082-1.467,5.398 c-1.232,2.306-1.689,3.921-2.084,5.61c-0.381,1.701-3.623,2.465-5.312,3.698c-1.689,1.232-3.686,4.868-3.958,5.891 c-0.271,1.023-1.023,2.392-3.18,5.733c-2.145,3.328-0.689,2.096-1.552,5.104c-0.741,2.576-1.898,3.031-2.835,3.463 c-1.604-2.046-20.167-4.401-29.462-4.006c-9.849,0.432-12.327,0.48-24.246-0.038c-11.907-0.518-22.594-3.809-31.432-3.192 c-8.827,0.616-21.363,2.675-25.467-2.675c-4.117-5.337-2.675-6.977-7.396-9.861c-4.734-2.872-4.734-1.233-5.756-5.954 c-1.024-4.721-1.234-11.094-5.141-14.385c-3.896-3.279-4.437-5.373-6.114-4.326c-1.701-3.453-5.694-6.558-3.846-8.975 c2.625-3.415,39.089-78.693,35.945-79.224c-3.156-0.518-7.347-4.449-14.434-7.076c-7.076-2.624-9.701-1.305-14.422-7.088 c-4.721-5.768-7.865-6.816-9.701-8.911c-1.836-2.096-3.23-4.463-3.193-8.135c0.038-3.673,0.628-6.952,0-7.643 c-0.358-0.394-0.986-1.158-1.455-1.75c0.235-0.111,0.482-0.246,0.753-0.431c1.676-1.11-0.186-5.005,0-6.866 c0.123-1.295-0.642-4.291-0.924-5.991c0.676-0.012,1.391-0.334,2.193-1.085c3.29-3.082,5.337-10.071,11.92-9.861 c6.57,0.197,6.779,0,10.268-2.675s6.163-5.14,8.629-3.291c2.465,1.849,6.779,1.233,10.477,1.849 c3.699,0.616,9.862,2.268,7.803-1.023c-2.046-3.291-2.872-8.222-0.814-8.42c2.046-0.209,9.036,2.663,11.908,0 c2.884-2.675,11.71,0.198,11.71,2.465c0,0.332,0.049,0.616,0.135,0.863c-1.024,1.294-1.725,2.81,0.419,4.857 c3.058,2.909,5.377,1.885,9.739,4.943c4.364,3.044,6.829,3.477,10.022,8.419c3.204,4.943,1.306,4.795,5.373,12.647 c4.068,7.839,7.556,11.181,8.863,15.693c1.307,4.498,0.444,4.93,5.091,8.714c4.647,3.771,6.101,4.795,8.42,3.771 c2.328-1.01,2.625-3.92,3.783-7.112c1.159-3.204,1.59-4.363,3.772-6.546c2.182-2.181,2.909-4.216,6.103-6.828 c3.204-2.614,5.818-3.465,7.704-4.857c1.885-1.393,2.416-2.342,4.548-2.084c0.517,1.517,0.814,2.86-0.21,3.884 c-1.849,1.849-5.547,2.872-8.838,4.721c-3.291,1.849-4.721,4.105-5.141,8.013c-0.406,3.907-5.337,13.424-2.465,11.13 c2.884-2.292,7.396-7.641,9.245-11.956c1.849-4.314,4.314-5.954,6.989-5.547c2.675,0.419,18.7,0,24.653,0.617 c5.955,0.616,10.479,4.117,8.838,7.815c-1.651,3.698-6.779,14.792-11.513,15.606c-4.721,0.826-16.431,4.733-11.71,5.14 c4.733,0.407,8.013-0.209,8.013,2.059c0,2.256,0.418,4.512,2.675,2.465c2.255-2.059,2.872-8.431,6.989-8.838 c4.106-0.407,4.106-11.711,6.977-12.734c2.884-1.035,1.651-4.931,7.606-3.291c5.954,1.639,13.152-0.407,16.431,2.256 c3.292,2.675,4.386,5.818,11.992,6.409C578.686,159.097,579.585,159.133,579.585,159.183z"
               pointer-events="auto" stroke-width="0.5" id="path5723" />
     </g>
     <g id="AP" data-errors="0" hint-index="0" class="q" data-qtext="Amapá" data-qimg="null" data-wikipedialink=""
          data-infotext="" data-infoimgurl="" data-sayafter="" inkscape:label="#AP">

          <linearGradient id="SVGID_3_" gradientUnits="userSpaceOnUse" x1="474.8711" y1="423.8887" x2="474.8711"
               y2="516.813" gradientTransform="matrix(1 0 0 -1 0 583)">
               <stop offset="0" style="stop-color:#FCEE21" id="stop5726" />
               <stop offset="1" style="stop-color:#D9E021" id="stop5728" />
          </linearGradient>
          <path fill="#808080" stroke="#FFFFFF" stroke-width="0.5" stroke-miterlimit="10"
               d="M516.165,116.088 c-1.848,3.895-9.663,8.21-9.454,11.292c0.086,1.381,0.628,2.711,1.035,3.931c-2.132-0.257-2.663,0.691-4.548,2.084 c-1.886,1.392-4.5,2.243-7.704,4.857c-3.194,2.612-3.921,4.647-6.103,6.828c-2.182,2.183-2.613,3.342-3.772,6.546 c-1.158,3.192-1.455,6.102-3.783,7.112c-2.318,1.023-3.773,0-8.42-3.771c-4.648-3.784-3.784-4.216-5.091-8.714 c-1.307-4.512-4.796-7.854-8.863-15.693c-4.068-7.852-2.169-7.704-5.373-12.647c-3.193-4.942-5.658-5.375-10.022-8.419 c-4.362-3.058-6.682-2.034-9.739-4.943c-2.144-2.046-1.442-3.563-0.419-4.857c0.517,1.381,2.563,1.332,6.645,1.023 c4.796-0.358,8.344-2.072,10.292-1.837c1.96,0.247,4.71,1.381,9.431,0.567c4.734-0.826,6.989-1.652,9.455-7.199 c2.465-5.547,4.104-9.035,6.372-13.14c2.256-4.117,5.128-7.199,8.013-9.245c2.873-2.058,4.931-4.931,6.361-3.082 c1.442,1.849,2.884,4.314,2.884,8.012s3.896,9.036,4.513,15.199c0.616,6.163,6.163,13.966,7.606,15.408 c1.441,1.442,5.547,2.059,7.803,3.908C515.55,111.158,518.014,112.181,516.165,116.088z"
               pointer-events="auto" id="path5731" />
     </g>
     <g id="AC" data-errors="0" hint-index="0" class="q" data-qtext="Acre" data-qimg="null" data-wikipedialink=""
          data-infotext="" data-infoimgurl="" data-sayafter="">

          <linearGradient id="SVGID_4_" gradientUnits="userSpaceOnUse" x1="169.6745" y1="248.0295" x2="169.6745"
               y2="312.295" gradientTransform="matrix(1 0 0 -1 0 583)">
               <stop offset="0" style="stop-color:#3FA9F5" id="stop5734" />
               <stop offset="1" style="stop-color:#00FFFF" id="stop5736" />
          </linearGradient>
          <path fill="#808080" stroke="#FFFFFF" stroke-width="0.5" stroke-miterlimit="10"
               d="M233.662,311.479 c-5.459,0.419-2.909,1.454-6.976,4.303c-4.105,2.872-3.698,5.128-6.163,7.187c-2.466,2.059-6.163,1.023-11.501,3.698 c-5.338,2.675-5.954,6.163-8.222,7.803c-2.255,1.651-4.721-1.023-11.907-4.512c-7.199-3.501-6.78-2.058-9.665,1.43 c-2.872,3.501-11.292,2.675-14.373,1.849c-3.082-0.814,2.046-18.49,2.046-23.002c0-4.524-6.163,1.023-8.21,3.489 c-2.058,2.465-3.29,2.675-10.477,8.012c-7.199,5.338-8.221-1.849-8.628-3.907c-0.42-2.046-3.698-5.547-6.989-7.594 c-3.291-2.058-8.013-0.21-9.862-1.233c-1.849-1.035-2.256-2.465,1.023-5.349c3.291-2.872-3.279-8.21-6.779-10.675 c-3.489-2.465-4.721-4.524-4.721-6.163c0-1.652-1.024-4.524-4.524-6.582c-3.489-2.046-1.849-5.337,0-6.36 c1.59-0.887,2.884-2.699,3.204-3.168c0.431,0.458,1.035,0.777,2.639,0.863c2.748,0.148,3.82,0.456,5.804,1.984 c1.986,1.529,2.749,1.984,7.779,3.513c5.041,1.529,5.041,1.221,9.466,1.677c4.438,0.456-3.513-1.369,6.879,0 c10.379,1.368,8.394,0.616,12.055,0.911c3.661,0.308,5.352,0.469,7.939,1.986c2.6,1.528,4.13,1.528,7.334,2.749 c3.206,1.219,3.97,0.616,6.866,2.748c2.896,2.145,8.703,2.293,10.849,3.821c2.131,1.529,2.44,2.441,6.1,4.735 c3.662,2.293,2.896,2.132,7.483,4.117c4.573,1.985,5.497,2.601,8.85,4.277c3.366,1.677,9.628,4.586,10.083,4.586 c0.457,0,4.117,0.604,6.559,0.913c0.419,0.048,0.703,0.099,0.887,0.135c0.911,0.209-0.332,0.296,1.565,0.173 C231.541,309.791,232.885,310.764,233.662,311.479z"
               pointer-events="auto" id="path5739" />
     </g>
     <g id="MT" data-errors="0" hint-index="0" class="q" data-qtext="Mato Grosso" data-qimg="null" data-wikipedialink=""
          data-infotext="" data-infoimgurl="" data-sayafter="">

          <linearGradient id="SVGID_5_" gradientUnits="userSpaceOnUse" x1="406.0833" y1="137.3815" x2="406.0833"
               y2="320.3106" gradientTransform="matrix(1 0 0 -1 0 583)">
               <stop offset="0" style="stop-color:#FCEE21" id="stop5742" />
               <stop offset="1" style="stop-color:#D9E021" id="stop5744" />
          </linearGradient>
          <path fill="#808080" stroke="#FFFFFF" stroke-width="0.5" stroke-miterlimit="10"
               d="M498.33,327.886 c-3.661,9.431,0.134,8.025,2.39,14.804c2.058,6.187,0.715,10.551,0.987,13.632c0.036,0.297,0.073,0.58,0.135,0.852 c0.703,3.093,1.121,8.161,0.985,10.404c-0.134,2.254-6.051,6.483-6.471,12.807c-0.431,6.335-1.688,6.62-4.647,9.861 c-2.959,3.23-3.242,2.675-7.039,6.335c-3.796,3.663-4.782,5.204-4.782,10.134c0,4.918-5.498,3.228-10.835,6.891 c-5.35,3.661-7.471,9.145-9.998,14.496c-2.082,4.387-4.338,7.728-3.734,11.783c0.135,0.889,0.407,1.825,0.851,2.799 c2.465,5.437-3.316,2.034-9.504,0c-6.189-2.021,1.973-4.869,3.661-7.828c1.689-2.945-4.512-1.12-6.472,0.987 c-1.972,2.12-6.483,1.134-9.01,0.431c-2.539-0.703-6.62,1.96-9.714,2.108c-3.093,0.135-4.08-0.986-8.863-3.661 c-4.794-2.675-4.51-1.554-6.904-2.811c-2.39-1.27-5.768,1.121-9.009,2.945c-3.231,1.838-6.608,4.931-10.268,7.04 c-3.662,2.12-5.068-0.421-8.877-2.959c-3.797-2.527-2.39-2.946-5.2-5.202c-1.874-1.505-2.615-1.407-3.366-1.456 c-0.394-0.789-0.703-1.602-0.913-2.477c-1.639-6.779,4.105-11.71-7.186-12.535c-11.304-0.827-19.315,1.639-21.572-4.105 c-2.268-5.756-2.059-8.013-4.314-11.71c-2.269-3.698-5.966-3.908-2.884-6.373s4.931-5.14,3.082-8.628 c-1.849-3.489-4.105-2.256-3.279-6.78c0.776-4.338-0.321-5.645-2.218-6.656c0.579-2.095,2.451-5.141,6.064-8.58 c4.451-4.251,5.265-8.493,7.482-13.744c2.22-5.264-0.813-13.756-4.449-17.393s-9.096-6.262-11.316-7.075 c-2.231-0.802-8.493-1.615-11.524-4.241c-3.034-2.625,0.812-14.348-2.022-19.206c-2.836-4.857,0-2.428,0-7.679 c0-5.264-4.45-5.264-6.262-6.878c-1.234-1.086-2.738-1.074-5.252-1.763c0.876-0.346,1.985-0.678,2.367-0.678 c0.541,0,6.361,2.367,10.341,3.118c3.982,0.754,2.369,1.615,9.677,0c7.321-1.614,8.296-1.934,13.67-1.614 c5.386,0.322,4.413,1.566,13.67,0.519c9.256-1.048,14.853-4.278,14.101-9.011c-0.752-4.746-0.862-6.25,1.393-11.415 c0.665-1.517,0.357-2.994-0.345-4.413c1.677-1.047,2.218,1.047,6.114,4.326c3.907,3.291,4.117,9.664,5.141,14.385 c1.023,4.721,1.023,3.082,5.756,5.954c4.721,2.884,3.279,4.524,7.396,9.861c4.104,5.349,16.641,3.291,25.467,2.675 c8.838-0.616,19.525,2.675,31.432,3.192c11.92,0.518,14.397,0.469,24.246,0.038c9.294-0.395,27.858,1.959,29.462,4.006 c0.099,0.124,0.135,0.235,0.099,0.358C505.503,309.877,501.99,318.456,498.33,327.886z"
               pointer-events="auto" id="path5747" />
     </g>
     <g id="RO" data-errors="0" hint-index="0" class="q" data-qtext="Rondônia" data-qimg="null" data-wikipedialink=""
          data-infotext="" data-infoimgurl="" data-sayafter="">

          <linearGradient id="SVGID_6_" gradientUnits="userSpaceOnUse" x1="288.0854" y1="209.985" x2="288.0854"
               y2="308.5569" gradientTransform="matrix(1 0 0 -1 0 583)">
               <stop offset="0" style="stop-color:#F15A24" id="stop5750" />
               <stop offset="1" style="stop-color:#FF811E" id="stop5752" />
          </linearGradient>
          <path fill="#808080" stroke="#FFFFFF" stroke-width="0.5" stroke-miterlimit="10"
               d="M346.907,350.691 c-2.217,5.251-3.031,9.493-7.482,13.744c-3.613,3.439-5.485,6.485-6.064,8.58c-0.074-0.037-0.16-0.086-0.248-0.124 c-2.058-1.023-3.29-1.232-9.454-1.848c-6.163-0.617-11.094-2.059-15.2-5.548c-4.117-3.489-6.989-2.675-12.535-6.57 c-5.548-3.907-4.722-2.465-10.479-4.117c-5.756-1.639-5.954,0-10.884-0.813c-4.931-0.827-14.385-7.199-16.444-11.304 c-2.046-4.105-8.013-6.57-7.396-9.861c0,0,3.082-9.652,3.082-14.792c0-5.14-4.314-7.803-6.78-8.222 c-2.465-0.407-7.396,1.232-13.14,1.652c-0.075,0-0.148,0.012-0.222,0.012c-0.777-0.715-2.121-1.688-3.587-1.589 c-1.897,0.123-0.654,0.036-1.565-0.173c1.38-1.294,2.921-1.972,4.585-4.315c2.022-2.823,10.517-4.24,13.745-3.637 c3.229,0.605,9.295,1.541,11.315-0.136c2.022-1.688,3.034-2.292,7.889-5.324c4.857-3.032,4.044-1.011,6.669-6.867 c2.627-5.867,4.449-6.076,6.472-7.691c2.022-1.615,7.483-7.273,7.483-7.273s2.218-0.604,6.065,3.439 c3.833,4.044,3.439,4.241,8.887,6.865c1.787,0.865,3.242,1.357,4.462,1.677c2.514,0.69,4.018,0.678,5.252,1.763 c1.812,1.614,6.262,1.614,6.262,6.878c0,5.251-2.836,2.822,0,7.679c2.834,4.858-1.011,16.58,2.022,19.206 c3.031,2.625,9.293,3.439,11.524,4.241c2.219,0.813,7.679,3.438,11.316,7.075S349.126,345.427,346.907,350.691z"
               pointer-events="auto" id="path5755" />
     </g>
     <g id="MS" data-errors="0" hint-index="0" class="q" data-qtext="Mato Grosso do Sul" data-qimg="null"
          data-wikipedialink="" data-infotext="" data-infoimgurl="" data-sayafter="" inkscape:label="#MS">

          <linearGradient id="SVGID_7_" gradientUnits="userSpaceOnUse" x1="432.7836" y1="151.4431" x2="432.7836"
               y2="33.405" gradientTransform="matrix(1 0 0 -1 0 583)">
               <stop offset="0" style="stop-color:#00FF00" id="stop5758" />
               <stop offset="1" style="stop-color:#00C800" id="stop5760" />
          </linearGradient>
          <path fill="#808080" stroke="#FFFFFF" stroke-width="0.5" stroke-linejoin="round" stroke-miterlimit="10"
               d=" M492.413,478.779c-0.099,0.973-0.21,1.934-0.284,2.847c-0.431,5.03-3.279,3.932-7.149,6.558c-3.883,2.625-3.785,5.682-7.063,10.059 c-3.278,4.376-5.251,9.406-8.086,15.752c-2.848,6.337-10.28,7.865-14.275,13.215c-1.307,1.097-2.514,2.304-3.883,3.402 c-3.28,2.627-7.654,10.28-9.627,13.337c-1.417,2.221-3.39,4.315-4.969,5.646c-0.159-3.045-1.047-4.684-3.919-3.513 c-4.513,1.849-12.118,7.187-13.56-1.849c-1.43-9.035,1.035-19.723-2.662-21.572c-3.698-1.849-4.117-6.989-12.537-6.163 c-8.42,0.827-11.303,4.314-18.28,1.442c-6.989-2.885-7.199-4.733-5.756-11.71c1.442-6.99,0.616-12.129-2.059-18.49 c-2.662-6.373,1.442-4.931,0.21-11.711c-1.232-6.779,0.21-7.814,2.256-14.594c2.058-6.779,6.989-13.141,3.697-17.048 c-2.86-3.401-9.158-6.804-11.821-12.105c0.751,0.049,1.492-0.049,3.366,1.456c2.81,2.255,1.403,2.675,5.2,5.202 c3.809,2.538,5.215,5.079,8.877,2.959c3.66-2.109,7.037-5.203,10.268-7.04c3.241-1.824,6.618-4.216,9.009-2.945 c2.394,1.258,2.109,0.136,6.904,2.811c4.783,2.675,5.77,3.796,8.863,3.661c3.094-0.148,7.175-2.811,9.714-2.108 c2.527,0.703,7.038,1.689,9.01-0.431c1.959-2.107,8.161-3.932,6.472-0.987c-1.688,2.959-9.849,5.807-3.661,7.828 c6.189,2.034,11.969,5.437,9.504,0c-0.444-0.973-0.715-1.91-0.851-2.799c0.801,0,1.799,0.124,2.169,0.247 c0.628,0.235,2.059,8.9,4.018,12.401c1.972,3.501,6.127,2.403,15.1,5.252c8.962,2.847,2.404,4.154,6.114,7.655 c3.723,3.5,7.877,2.625,9.406,3.5c0.32,0.186,0.53,0.617,0.642,1.245C493.14,472.022,492.757,475.462,492.413,478.779z"
               pointer-events="auto" id="path5763" />
     </g>
     <g id="RS" data-errors="0" hint-index="0" class="q" data-qtext="Rio Grande do Sul" data-qimg="null"
          data-wikipedialink="" data-infotext="" data-infoimgurl="" data-sayafter="" inkscape:label="#RS">

          <linearGradient id="SVGID_8_" gradientUnits="userSpaceOnUse" x1="448.8839" y1="-131.9708" x2="448.8839"
               y2="-15.6264" gradientTransform="matrix(1 0 0 -1 0 583)">
               <stop offset="0" style="stop-color:#3FA9F5" id="stop5766" />
               <stop offset="1" style="stop-color:#00FFFF" id="stop5768" />
          </linearGradient>
          <path fill="#808080" stroke="#FFFFFF" stroke-width="0.5" stroke-miterlimit="10"
               d="M510.433,638.015 c-3.314,4.03-6.114,8.197-7.63,12.227c-3.082,8.222-6.779,10.072-9.245,15.003c-2.465,4.93-7.186,9.861-11.5,14.792 s-7.606,3.279-10.269,9.035c-2.675,5.756-7.396,9.036-9.048,13.351c-1.639,4.314-5.128,6.779-7.186,9.245 c-2.059,2.465-3.489,5.349-5.141,1.232c-1.639-4.106-2.046-5.128-1.639-8.827c0.407-3.697,1.849-2.883,3.908-5.349 c2.046-2.465,1.232-3.697-3.082-8.42c-4.315-4.721-2.651-7.396-11.193-11.5c-8.531-4.117-11.612-6.163-18.811-9.455 c-7.186-3.292-6.779-10.07-11.5-11.71c-4.721-1.639-6.78-5.955-9.862-4.315c-3.082,1.641-13.559,4.722-10.268,0.407 c3.279-4.314,11.5-10.058,13.966-16.221c2.465-6.163,5.14-10.897,11.094-16.025c5.954-5.141,6.163-8.012,11.303-10.07 c5.128-2.059,12.524-3.489,16.222-7.187c3.39-3.39,4.708,0.628,5.535-5.128c1.43-0.036,2.527-1.047,8.641,0 c6.125,1.049,6.779-0.259,9.849,1.492c3.056,1.751,4.376,4.155,7.876,4.808c3.489,0.665,7.655,0.665,9.393,1.749 c1.751,1.097,2.847,2.196,3.945,4.155c1.096,1.972,1.096,4.82,3.5,6.78c2.404,1.972,5.239,3.721,8.308,4.154 c3.056,0.444,9.183,0.221,9.183,3.291c0,3.056-5.472,7.865-3.278,9.393C505.688,636.461,510.433,638.015,510.433,638.015z"
               pointer-events="auto" id="path5771" />
     </g>
     <g id="PR" data-errors="0" hint-index="0" class="q" data-qtext="Paraná" data-qimg="null" data-wikipedialink=""
          data-infotext="" data-infoimgurl="" data-sayafter="">

          <linearGradient id="SVGID_9_" gradientUnits="userSpaceOnUse" x1="483.8765" y1="-7.8177" x2="483.8765"
               y2="60.1797" gradientTransform="matrix(1 0 0 -1 0 583)">
               <stop offset="0" style="stop-color:#F15A24" id="stop5774" />
               <stop offset="1" style="stop-color:#FF811E" id="stop5776" />
          </linearGradient>
          <path fill="#808080" stroke="#FFFFFF" stroke-width="0.5" stroke-miterlimit="10"
               d="M534.458,569.008 c-1.109,1.11-1.997,2.577-2.477,4.598c-0.493,2.083-1.306,4.289-2.23,6.46c0,0-3.279,0.837-5.474,1.121 c-2.181,0.283-4.154,0.382-7.863,2.786c-3.724,2.404-5.03,0.431-9.849,0c-4.807-0.445-5.905-0.222-8.962,0 c-3.069,0.21-7.001,2.404-10.058,4.585c-3.07,2.195-3.28,1.972-9.283,2.195c-5.991,0.209-3.402,0-11.932-1.973 c-8.53-1.972-7.432-3.279-10.773-5.473c-3.341-2.182-7.163-2.404-9.035-1.886c-2.466-4.117-1.035-7.606-5.756-7.396 c-4.722,0.197-8.013-1.652-7.397-5.756c0.617-4.105,3.082-5.756,3.489-12.327c0.148-2.393,0.308-4.598,0.221-6.349 c1.579-1.331,3.552-3.426,4.969-5.646c1.973-3.057,6.347-10.71,9.627-13.337c1.369-1.097,2.576-2.304,3.883-3.402 c1.825-1.541,3.809-2.872,6.62-3.377c4.807-0.875,10.095-1.751,16.086,0c6.003,1.751,14.534,3.056,19.563,5.03 c5.029,1.972,11.451,6.644,12.609,7.913c1.16,1.27,2.479,10.453,4.439,13.079c1.972,2.627,2.194,3.501,5.041,6.127 c2.835,2.625,9.838,6.558,11.144,8.739C532.376,566.914,534.458,569.008,534.458,569.008z"
               pointer-events="auto" id="path5779" />
     </g>
     <g id="SC" data-errors="0" hint-index="0" class="q" data-qtext="Santa Catarina" data-qimg="null"
          data-wikipedialink="" data-infotext="" data-infoimgurl="" data-sayafter="" inkscape:label="#SC">
          <path fill="#808080" stroke="#FFFFFF" stroke-width="0.5" stroke-miterlimit="10"
               d="M523.969,609.354 c0,6.373,5.14,9.862-2.256,16.851c-3.772,3.562-7.815,7.606-11.28,11.81c0,0-4.745-1.553-6.926-3.094 c-2.194-1.528,3.278-6.336,3.278-9.393c0-3.07-6.127-2.848-9.183-3.291c-3.069-0.432-5.904-2.182-8.308-4.154 c-2.404-1.96-2.404-4.808-3.5-6.78c-1.098-1.959-2.194-3.058-3.945-4.155c-1.738-1.085-5.904-1.085-9.393-1.749 c-3.5-0.653-4.82-3.058-7.876-4.808c-3.07-1.751-3.724-0.443-9.849-1.492c-6.114-1.047-7.211-0.036-8.641,0 c0.073-0.53,0.147-1.145,0.221-1.861c0.825-8.419,2.675-11.711,0.21-15.815c1.872-0.518,5.694-0.296,9.035,1.886 c3.341,2.194,2.244,3.501,10.773,5.473c8.531,1.973,5.941,2.182,11.932,1.973c6.003-0.224,6.213,0,9.283-2.195 c3.056-2.181,6.989-4.375,10.058-4.585c3.056-0.222,4.155-0.445,8.962,0c4.82,0.431,6.126,2.404,9.849,0 c3.71-2.404,5.683-2.503,7.863-2.786c2.195-0.284,5.474-1.121,5.474-1.121c-2.541,5.965-5.881,11.734-5.573,14.299 C524.585,597.853,523.969,602.994,523.969,609.354z"
               pointer-events="auto" id="path5782" />
     </g>
     <g id="SP" data-errors="0" hint-index="0" class="q" data-qtext="São Paulo" data-qimg="null" data-wikipedialink=""
          data-infotext="" data-infoimgurl="" data-sayafter="" inkscape:label="#SP">

          <linearGradient id="SVGID_10_" gradientUnits="userSpaceOnUse" x1="527.1185" y1="13.9929" x2="527.1185"
               y2="106.7481" gradientTransform="matrix(1 0 0 -1 0 583)">
               <stop offset="0" style="stop-color:#FCEE21" id="stop5785" />
               <stop offset="1" style="stop-color:#D9E021" id="stop5787" />
          </linearGradient>
          <path fill="#808080" stroke="#FFFFFF" stroke-width="0.5" stroke-miterlimit="10"
               d="M598.682,535.443 c-4.562-0.284-9.591,0.666-9.997,3.155c-0.617,3.784-3.489,4.191-7.804,6.866c-4.314,2.676-10.28,1.442-15.827,5.338 c-5.547,3.907-16.641,9.665-19.92,12.536c-2.441,2.132-7.483,2.453-10.676,5.669c0,0-2.082-2.094-3.401-4.289 c-1.306-2.182-8.308-6.114-11.144-8.739c-2.847-2.625-3.069-3.5-5.041-6.127c-1.961-2.625-3.279-11.809-4.439-13.079 c-1.158-1.269-7.579-5.941-12.609-7.913c-5.03-1.973-13.56-3.279-19.563-5.03c-5.991-1.751-11.279-0.875-16.086,0 c-2.811,0.506-4.794,1.837-6.62,3.377c3.994-5.35,11.427-6.879,14.275-13.215c2.835-6.347,4.808-11.376,8.086-15.752 c3.279-4.377,3.18-7.434,7.063-10.059c3.87-2.625,6.718-1.528,7.149-6.558c0.075-0.913,0.186-1.873,0.284-2.847 c3.365,0.454,2.6,2.095,5.928-0.076c3.538-2.304,4.77-3.23,7.089-1.689c2.304,1.541,7.383,2.503,10.453,2.787 c3.082,0.295,1.996-0.629,3.844,1.824c1.849,2.465,0,4.154,5.387,3.082c5.387-1.073,2.393-2.305,9.344-1.997 c6.966,0.308,16.037-2.059,16.037-2.059s0.925,2.417,1.382,4.39c0.468,1.972-2.144,3.672,0,8.899 c2.156,5.227,0.924,11.23,3.845,11.537c2.934,0.308,4.463-2.465,5.387,0c0.925,2.453,2.158,6.46,0.925,8.766 c-1.234,2.304-0.346,4.77,0.517,6.927c0.863,2.158,2.565,8.001,4.253,8.617c1.689,0.617,2.465,2.452,5.227,0 c2.773-2.465,2.317-2.773,5.694-4.154c3.39-1.393,4.772-1.849,6.766-1.701c0.765,0.062,2.245,0.505,3.846,1.047 c2.552,0.863,5.399,1.986,6.152,2.232c1.232,0.42,3.845,1.961,2.934,3.193c-0.925,1.219-0.69,2.76,0.185,3.376 C598.052,534.087,598.41,534.803,598.682,535.443z"
               pointer-events="auto" id="path5790" />
     </g>
     <g id="RJ" data-errors="0" hint-index="0" class="q" data-qtext="Rio de Janeiro" data-qimg="null"
          data-wikipedialink="" data-infotext="" data-infoimgurl="" data-sayafter="" inkscape:label="#RJ">

          <linearGradient id="SVGID_11_" gradientUnits="userSpaceOnUse" x1="619.0515" y1="84.3139" x2="619.0515"
               y2="44.4038" gradientTransform="matrix(1 0 0 -1 0 583)">
               <stop offset="0" style="stop-color:#00FF00" id="stop5793" />
               <stop offset="1" style="stop-color:#00C800" id="stop5795" />
          </linearGradient>
          <path fill="#808080" stroke="#FFFFFF" stroke-linejoin="round" stroke-miterlimit="10"
               d="M645.596,523.277 c-5.547,1.849-13.978,3.489-13.768,8.221c0.209,4.721,4.314,6.362-5.141,6.78c-9.442,0.407-17.873,0.814-21.979-1.442 c-1.404-0.776-3.648-1.245-6.027-1.393c-0.272-0.641-0.629-1.356-1.073-1.665c-0.875-0.617-1.11-2.158-0.185-3.376 c0.911-1.232-1.701-2.773-2.934-3.193c-0.753-0.246-3.6-1.369-6.152-2.232c0.593-0.911,1.456-1.823,3.131-2.156 c2.393-0.48,2.306-0.69,7.643-2.083c5.337-1.394,7.925-2.601,10.132-2.601c2.194,0,4.782,0.21,8.986,0 c4.192-0.197,2.996,1.011,7.384-2.194c4.388-3.192,6.189-3.402,7.186-7.987c0.997-4.586,2.194-8.789,3.193-8.789 c0.566,0,1.787-0.258,2.724-0.481c-0.062,1.887,0.185,3.241,2.478,4.535c3.193,1.787,7.284,3.931,8.432,3.931h0.011 c-0.271,1.174-0.394,1.973-0.345,2.836C649.701,516.558,651.143,521.428,645.596,523.277z"
               pointer-events="auto" stroke-width="0.5" id="path5798" />
     </g>
     <g id="ES" data-errors="0" hint-index="0" class="q" data-qtext="Espírito Santo" data-qimg="null"
          data-wikipedialink="" data-infotext="" data-infoimgurl="" data-sayafter="" inkscape:label="#ES">

          <linearGradient id="SVGID_12_" gradientUnits="userSpaceOnUse" x1="657.457" y1="75.848" x2="657.457"
               y2="132.696" gradientTransform="matrix(1 0 0 -1 0 583)">
               <stop offset="0" style="stop-color:#F15A24" id="stop5801" />
               <stop offset="1" style="stop-color:#FF811E" id="stop5803" />
          </linearGradient>
          <path fill="#808080" stroke="#FFFFFF" stroke-miterlimit="10"
               d="M676.204,459.351c-1.664,3.624-2.059,8.358-2.059,12.154 c0,4.722-2.662,8.42-5.128,11.501c-2.465,3.082-5.14,7.05-7.606,11.364c-2.145,3.748-10.021,8.086-11.772,12.782h-0.011 c-1.148,0-5.239-2.144-8.432-3.931c-2.293-1.294-2.539-2.822-2.478-4.709c0.011-0.738,0.075-1.43,0.075-2.231 c0-2.786,3.797-5.343,6.792-7.537c2.994-2.193,2.797-8.162,3.193-9.161c0.394-0.999,4.992-6.19,3.993-7.78 c-0.998-1.603-1.799-4.789-0.998-5.788c0.801-0.997,3.193-4.188,2.798-6.987c-0.407-2.797,1.997-2.6,2.996-4.596 c0.999-1.997,5.189-1.997,8.185-2.786c1.318-0.357,1.837-0.825,1.96-1.342c0.443,0.086,0.765,0.235,0.937,1.023 c0.296,1.344-0.075,2.158,1.775,3.724c1.862,1.552,2.687,2.292,3.796,3.341C674.798,458.931,675.587,459.215,676.204,459.351z"
               pointer-events="auto" stroke-width="0.5" id="path5806" />
     </g>
     <g id="MG" data-errors="0" hint-index="0" class="q" data-qtext="Minas Gerais" data-qimg="null"
          data-wikipedialink="" data-infotext="" data-infoimgurl="" data-sayafter="" inkscape:label="#MG">

          <linearGradient id="SVGID_13_" gradientUnits="userSpaceOnUse" x1="583.8862" y1="51.9757" x2="583.8862"
               y2="200.3178" gradientTransform="matrix(1 0 0 -1 0 583)">
               <stop offset="0" style="stop-color:#3FA9F5" id="stop5809" />
               <stop offset="1" style="stop-color:#00FFFF" id="stop5811" />
          </linearGradient>
          <path fill="#808080" stroke="#FFFFFF" stroke-width="0.5" stroke-miterlimit="10"
               d="M672.741,424.687 c-2.391,2.194-4.796,5.19-6.584,7.582c-1.799,2.404-5.399,5.189-4.202,8.185c1.207,2.996,5.202,6.596,5.399,7.79 c0.111,0.666,0.53,1.405,0.358,2.059c-0.124,0.517-0.642,0.986-1.96,1.344c-2.996,0.789-7.186,0.789-8.185,2.786 c-0.999,1.996-3.403,1.8-2.996,4.597c0.394,2.8-1.997,5.991-2.798,6.99c-0.8,0.999,0,4.191,0.998,5.793 c0.999,1.59-3.599,6.792-3.993,7.791c-0.396,0.997-0.198,6.989-3.193,9.182c-2.995,2.194-6.792,4.796-6.792,7.582 c0,0.801-0.063,1.579-0.075,2.317c-0.937,0.224-2.158,0.481-2.724,0.481c-0.999,0-2.195,4.203-3.193,8.789 c-0.997,4.586-2.799,4.796-7.186,7.987c-4.389,3.206-3.193,1.997-7.384,2.194c-4.204,0.21-6.792,0-8.986,0 c-2.207,0-4.796,1.207-10.132,2.601c-5.338,1.393-5.251,1.603-7.643,2.083c-1.675,0.334-2.538,1.245-3.131,2.156 c-1.602-0.541-3.082-0.985-3.846-1.047c-1.995-0.148-3.376,0.308-6.766,1.701c-3.377,1.38-2.921,1.689-5.694,4.154 c-2.762,2.452-3.538,0.617-5.227,0c-1.689-0.616-3.39-6.459-4.253-8.617c-0.863-2.156-1.751-4.623-0.517-6.927 c1.232-2.305,0-6.312-0.925-8.766c-0.924-2.465-2.453,0.308-5.387,0c-2.921-0.307-1.689-6.31-3.845-11.537 c-2.144-5.227,0.468-6.927,0-8.899c-0.456-1.973-1.382-4.39-1.382-4.39s-9.071,2.367-16.037,2.059 c-6.951-0.308-3.956,0.924-9.344,1.997c-5.387,1.072-3.538-0.617-5.387-3.082c-1.848-2.453-0.762-1.529-3.844-1.824 c-3.07-0.284-8.149-1.246-10.453-2.787c-2.318-1.541-3.551-0.616-7.089,1.689c-3.328,2.17-2.564,0.53-5.928,0.076 c0.344-3.317,0.727-6.756,0.358-8.593c2.823-1.455,7.173-4.597,7.986-6.262c0.913-1.899,2.17,0.272,5.326-3.242 c3.155-3.513,3.686-6.483,6.94-5.411c3.242,1.085,7.286,2.256,9.183-0.221c1.886-2.479,7.297-4.363,9.725-4.363 s2.158,2.157,6.756,2.157c4.597,0,5.127,3.242,8.37-1.085c3.254-4.314,4.054-3.784,5.952-7.298 c1.886-3.513,6.213-1.035,1.345-4.573c-4.858-3.524-5.128-3.524-2.972-5.152c2.169-1.614,4.87,2.972,3.242-3.785 c-1.615-6.755-5.942-4.856-2.428-9.182c3.513-4.328-1.751-5.128,4.388-8.914c6.152-3.785,5.608-8.382,5.067-11.623 c-0.543-3.242-6.953-2.701,0.308-6.484c7.259-3.784,6.445,1.356,8.615-4.858c1.32-3.784,2.614-3.858,2.948-4.733 c0.789,0.541,1.393,1.344,1.762,3.587c0.604,3.586-0.592,9.379,4.401,8.185c4.992-1.196,4.585-2.996,7.789-4.993 c3.194-1.996,7.89-3.402,11.638-5.189c3.735-1.8,11.92-6.398,13.128-2.601c1.196,3.797-2.996,9.183,1.997,9.183 c4.992,0,7.778-3.389,11.575-0.394c3.796,2.996,3.192,4.389,7.986,5.991c4.797,1.59,7.791,1.59,10.59,2.995 c2.799,1.393,6.99,1.59,7.778,4.586c0.802,2.996-0.788,4.993,3.008,4.993c3.783,0,6.78-1.393,8.185,0 c1.393,1.404,10.577,5.201,11.575,5.99C675.933,418.29,675.144,422.482,672.741,424.687z"
               pointer-events="auto" id="path5814" />

          <rect id="rect12_4_" x="570.097" y="424.776" opacity="0" fill="#FFFFFF" stroke="#010202"
               stroke-miterlimit="10" enable-background="new    " width="73.17" height="17.149" pointer-events="auto"
               visibility="hidden">
          </rect>
     </g>
     <g id="GO" data-errors="0" hint-index="0" class="q" data-qtext="Goiás" data-qimg="null" data-wikipedialink=""
          data-infotext="" data-infoimgurl="" data-sayafter="" inkscape:label="#GO">

          <linearGradient id="SVGID_14_" gradientUnits="userSpaceOnUse" x1="514.6671" y1="112.813" x2="514.6671"
               y2="233.4608" gradientTransform="matrix(1 0 0 -1 0 583)">
               <stop offset="0" style="stop-color:#F15A24" id="stop5818" />
               <stop offset="1" style="stop-color:#FF811E" id="stop5820" />
          </linearGradient>
          <path fill="#808080" stroke="#FFFFFF" stroke-miterlimit="10"
               d="M573.621,361.243c0.332-1.01,0.468-1.8,0.492-2.379 c-2.625,2.255-7.913,2.244-13.571,4.782c-5.966,2.676-6.373,0.407-11.094,2.873c-4.734,2.465-4.734-0.617-9.455-2.959 c-4.721-2.341-4.721,0.493-8.838,0c-4.104-0.493-0.197-3.402-0.814-7.001c-0.616-3.611-4.314-1.331-5.966,0 c-1.639,1.32-2.255,6.262-8.21,6.879c-5.965,0.616-5.349-1.232-7.396-2.256c-2.058-1.023,0-6.163,0-9.652 c0-3.501-0.209-1.651-2.686,0c-2.183,1.431-2.429,3.808-4.376,4.794c0.036,0.297,0.073,0.58,0.135,0.852 c0.703,3.093,1.121,8.161,0.985,10.404c-0.134,2.254-6.051,6.483-6.471,12.807c-0.431,6.335-1.688,6.62-4.647,9.861 c-2.959,3.23-3.242,2.675-7.039,6.335c-3.796,3.663-4.782,5.204-4.782,10.134c0,4.918-5.498,3.228-10.835,6.891 c-5.35,3.661-7.471,9.145-9.998,14.496c-2.082,4.387-4.338,7.728-3.734,11.783c0.801,0,1.799,0.124,2.169,0.247 c0.628,0.235,2.059,8.9,4.018,12.401c1.972,3.501,6.127,2.403,15.1,5.252c8.962,2.847,2.404,4.154,6.114,7.655 c3.723,3.5,7.877,2.625,9.406,3.5c0.32,0.186,0.53,0.617,0.642,1.245c2.823-1.455,7.173-4.597,7.986-6.262 c0.913-1.899,2.17,0.272,5.326-3.242c3.155-3.513,3.686-6.483,6.94-5.411c3.242,1.085,7.286,2.256,9.183-0.221 c1.886-2.479,7.297-4.363,9.725-4.363s2.158,2.157,6.756,2.157c4.597,0,5.127,3.242,8.37-1.085 c3.254-4.314,4.054-3.784,5.952-7.298c1.886-3.513,6.213-1.035,1.345-4.573c-4.858-3.524-5.128-3.524-2.972-5.152 c2.169-1.614,4.87,2.972,3.242-3.785c-1.615-6.755-5.942-4.856-2.428-9.182c3.513-4.328-1.751-5.128,4.388-8.914 c6.152-3.785,5.608-8.382,5.067-11.623c-0.543-3.242-6.953-2.701,0.308-6.484c7.259-3.784,6.445,1.356,8.615-4.858 c1.32-3.784,2.614-3.858,2.948-4.733c0.234-0.568,0.061-1.467-0.79-3.907c-2.158-6.225-5.941-2.983-2.158-10.28 C574.348,363.67,572.746,364.003,573.621,361.243z M546.076,411.874h-2.371c-2.621,0-4.75-2.072-4.75-5.136 c0-1.531,0.535-2.667,1.389-3.596c0.862-0.928,2.051-1.298,3.362-1.298h2.371c2.628,0,4.75,1.951,4.75,5.014 C550.826,409.922,548.703,411.874,546.076,411.874z"
               pointer-events="auto" stroke-width="0.5" id="path5823" />

          <rect id="rect12_2_" x="463.22" y="422.98" opacity="0" fill="#FFFFFF" stroke="#010202" stroke-miterlimit="10"
               enable-background="new    " width="73.17" height="17.149" pointer-events="auto" visibility="hidden">
          </rect>
     </g>
     <g id="DF" data-errors="0" hint-index="0" class="q" data-qtext="Distrito Federal" data-qimg="null"
          data-wikipedialink="" data-infotext="" data-infoimgurl="" data-sayafter="" inkscape:label="#DF">
          <circle fill="#1e8346" stroke="#b6b6bf" stroke-linejoin="round" stroke-miterlimit="10" cx="545.936"
               cy="407.324" r="22.12" pointer-events="auto" opacity="0.001" stroke-width="0.5" id="circle5827" />

          <linearGradient id="SVGID_15_" gradientUnits="userSpaceOnUse" x1="545.146" y1="184.738" x2="545.146"
               y2="167.442" gradientTransform="matrix(1 0 0 -1 0 583)">
               <stop offset="0" style="stop-color:#00FF00" id="stop5829" />
               <stop offset="1" style="stop-color:#00C800" id="stop5831" />
          </linearGradient>
          <path fill="#808080" stroke="#FFFFFF" stroke-linejoin="round" stroke-miterlimit="10"
               d="M553.794,406.91 c0,4.776-3.872,8.648-8.648,8.648s-8.648-3.872-8.648-8.648s3.872-8.648,8.648-8.648 C550.622,398.262,553.794,402.134,553.794,406.91z"
               pointer-events="auto" stroke-width="0.5" id="path5834" />
     </g>
     <g id="TO" data-errors="0" hint-index="0" class="q" data-qtext="Tocantins" data-qimg="null" data-wikipedialink=""
          data-infotext="" data-infoimgurl="" data-sayafter="">

          <linearGradient id="SVGID_16_" gradientUnits="userSpaceOnUse" x1="539.0032" y1="358.188" x2="539.0032"
               y2="215.5727" gradientTransform="matrix(1 0 0 -1 0 583)">
               <stop offset="0" style="stop-color:#00FF00" id="stop5837" />
               <stop offset="1" style="stop-color:#00C800" id="stop5839" />
          </linearGradient>
          <path fill="#808080" stroke="#FFFFFF" stroke-width="0.5" stroke-linejoin="round" stroke-miterlimit="10"
               d=" M570.81,330.98c-1.849,5.756,0.21,3.698,4.265,8.222c4.068,4.512,0.049,3.082-1.183,4.512c-1.232,1.442-2.465,3.908-2.872,8.222 c-0.42,4.314,5.954,3.907,3.489,6.545c-0.123,0.136-0.259,0.259-0.396,0.383c-2.625,2.255-7.913,2.244-13.571,4.782 c-5.966,2.676-6.373,0.407-11.094,2.873c-4.734,2.465-4.734-0.617-9.455-2.959c-4.721-2.341-4.721,0.493-8.838,0 c-4.104-0.493-0.197-3.402-0.814-7.001c-0.616-3.611-4.314-1.331-5.966,0c-1.639,1.32-2.255,6.262-8.21,6.879 c-5.965,0.616-5.349-1.232-7.396-2.256c-2.058-1.023,0-6.163,0-9.652c0-3.501-0.209-1.651-2.686,0 c-2.183,1.431-2.429,3.808-4.376,4.794c-0.272-3.082,1.071-7.445-0.987-13.632c-2.256-6.78-6.051-5.373-2.39-14.804 c3.661-9.43,7.173-18.01,7.741-20.13c0.037-0.123,0-0.233-0.099-0.358c0.937-0.432,2.095-0.887,2.835-3.463 c0.863-3.008-0.593-1.776,1.552-5.104c2.158-3.341,2.91-4.71,3.18-5.733c0.272-1.023,2.269-4.659,3.958-5.891 s4.931-1.997,5.312-3.698c0.396-1.689,0.852-3.304,2.084-5.61c1.232-2.316,3.155-2.551,1.467-5.398 c-1.703-2.848-3.859-2.54-1.849-7.163c1.996-4.623,1.379-6.163,2.92-7.937c1.541-1.775,6.09-3.39,8.938-6.163 c2.859-2.773,2.083-6.546,4.093-9.861c1.997-3.317,5.547-3.082,1.762-6.238c-3.772-3.157-8.013-4.475-5.855-7.013 c0.74-0.876,2.156-2.046,3.784-3.316c2.058,0.628,4.413,2.293,6.62,3.242c2.872,1.232,7.606,3.489,10.07,8.012 c2.465,4.524,0,10.885,0,16.641s-10.28,9.454-2.884,15.199c7.396,5.757,10.897,6.582,13.559,6.78 c2.676,0.209,3.908,3.907,3.908,5.966c0,2.046-6.373,5.744-6.57,8.826c-0.21,3.082-2.884,3.501,0.407,9.048 c3.29,5.547,3.082,5.523,4.931,9.122c1.848,3.611,4.314,5.67,6.569,6.483c1.936,0.703,3.698,2.146,4.438,0.913 c-0.295,1.49-1.627,3.797-4.351,5.251C572.622,322.561,572.659,325.224,570.81,330.98z"
               pointer-events="auto" id="path5842" />
     </g>
     <g id="MA" data-errors="0" hint-index="0" class="q" data-qtext="Maranhão" data-qimg="null" data-wikipedialink=""
          data-infotext="" data-infoimgurl="" data-sayafter="">

          <linearGradient id="SVGID_17_" gradientUnits="userSpaceOnUse" x1="596.6039" y1="267.4766" x2="596.6039"
               y2="423.816" gradientTransform="matrix(1 0 0 -1 0 583)">
               <stop offset="0" style="stop-color:#F15A24" id="stop5845" />
               <stop offset="1" style="stop-color:#FF811E" id="stop5847" />
          </linearGradient>
          <path fill="#808080" stroke="#FFFFFF" stroke-miterlimit="10"
               d="M653.054,190.739c-0.456,1.306-1.183,3.07-2.12,4.24 c-1.639,2.046-4.104,4.931-8.628,6.361c-4.524,1.442-5.338,3.501-5.325,9.861c0.025,6.373-5.152,6.582-3.304,10.071 c1.849,3.488,4.315,6.373,2.873,10.071c-1.431,3.698-3.698,6.361-4.721,10.268c-1.024,3.908,0.616,3.698,1.639,5.954 c1.035,2.268-1.431,4.524-2.873,9.245c-1.442,4.733-4.104,0.209-10.07,0c-5.954-0.198-4.511,1.652-9.442,2.675 c-4.931,1.023-4.734,5.547-7.606,7.396s-9.035,2.465-12.943,2.059c-3.907-0.419-2.872,3.279-4.93,6.977 c-2.059,3.698,1.441,5.756-2.059,9.664c-3.489,3.895-1.639,8.826-2.046,14.989c-0.418,6.163,0.407,10.897,0,13.559 c-0.037,0.271-0.099,0.482-0.172,0.666c-0.025-0.025-0.049-0.025-0.075-0.037c-0.013,0.087-0.024,0.173-0.037,0.272 c0,0,0,0.012-0.013,0.012c-0.74,1.233-2.502-0.209-4.438-0.913c-2.255-0.813-4.721-2.872-6.569-6.483 c-1.849-3.599-1.641-3.575-4.931-9.122c-3.291-5.547-0.617-5.966-0.407-9.048c0.197-3.082,6.57-6.78,6.57-8.826 c0-2.059-1.232-5.756-3.908-5.966c-2.662-0.198-6.163-1.023-13.559-6.78c-7.396-5.744,2.884-9.442,2.884-15.199 c0-5.756,2.465-12.117,0-16.641c-2.465-4.523-7.199-6.78-10.07-8.012c-2.207-0.949-4.562-2.613-6.62-3.242 c3.131-2.44,7.087-5.252,8.703-7.088c2.466-2.762,13.325-12.684,15.383-16.789c2.046-4.105,6.163-5.337,7.396-11.303 c1.234-5.954,1.504-7.803,3.561-10.884c2.059-3.082,4.389-3.489,4.389-9.245v-10.317c7.044,0.899,13.141,4.696,14.101,7.026 c1.025,2.465,3.046,0.21,6.954,1.442c3.895,1.233,7.575,4.524,7.378,9.245c-0.21,4.721-5.557,19.932-1.242,16.432 c4.314-3.489,15.601-10.268,18.893-10.268c3.29,0,18.696,6.373,23.627,7.396C650.098,190.629,651.403,190.714,653.054,190.739z"
               pointer-events="auto" stroke-width="0.5" id="path5850" />
     </g>
     <g id="PI" data-errors="0" hint-index="0" class="q" data-qtext="Piauí" data-qimg="null" data-wikipedialink=""
          data-infotext="" data-infoimgurl="" data-sayafter="" inkscape:label="#PI">

          <linearGradient id="SVGID_18_" gradientUnits="userSpaceOnUse" x1="628.0287" y1="258.1958" x2="628.0287"
               y2="392.2709" gradientTransform="matrix(1 0 0 -1 0 583)">
               <stop offset="0" style="stop-color:#FCEE21" id="stop5853" />
               <stop offset="1" style="stop-color:#D9E021" id="stop5855" />
          </linearGradient>
          <path fill="#808080" stroke="#FFFFFF" stroke-width="0.5" stroke-miterlimit="10"
               d="M665.935,291.325 c-0.948,0.506-1.811,0.937-2.601,1.308c-5.644,2.649-7.493,2.256-13.633,4.24c-6.989,2.268-5.756,4.524-11.501,7.199 c-5.756,2.663-6.163,0.813-7.396-1.442s-5.14-3.291-10.07-2.058c-4.931,1.232-4.931,10.477-5.338,14.952 c-0.418,4.475-2.884,5.596-6.989,5.596c-4.106,0-10.072,2.465-13.559,3.489c-3.489,1.035-5.141-2.256-7.397-4.931 c-1.948-2.305-3.907-3.846-6.126-4.881c0.073-0.185,0.135-0.395,0.172-0.666c0.407-2.663-0.418-7.396,0-13.559 c0.407-6.163-1.442-11.094,2.046-14.989c3.5-3.908,0-5.966,2.059-9.664c2.058-3.698,1.023-7.396,4.93-6.977 c3.908,0.407,10.072-0.209,12.943-2.059c2.872-1.849,2.675-6.373,7.606-7.396s3.489-2.872,9.442-2.675 c5.966,0.209,8.628,4.733,10.07,0c1.442-4.721,3.908-6.977,2.873-9.245c-1.024-2.256-2.663-2.046-1.639-5.954 c1.023-3.907,3.29-6.57,4.721-10.268c1.442-3.698-1.024-6.582-2.873-10.071c-1.848-3.489,3.329-3.698,3.304-10.071 c-0.013-6.361,0.802-8.419,5.325-9.861c4.524-1.43,6.989-4.315,8.628-6.361c0.937-1.17,1.664-2.933,2.12-4.24 c2.835,0.073,6.682,0,10.687-0.012c-0.234,0.764-0.628,1.787-1.306,3.019c-1.639,3.02,0,1.43-0.407,8.629 c-0.407,7.187,4.314,7.803,6.373,13.35c2.047,5.547-4.117,3.907-4.315,9.245c-0.209,5.337,0.198,5.337,3.082,11.71 c2.873,6.373,0.617,5.756,1.849,12.327c1.232,6.57,4.513,8.012,5.548,9.245c0.887,1.059-1.911,6.114-3.748,10.786 c-0.283,0.727-0.555,1.454-0.776,2.157c-1.639,5.14,1.442,3.907,1.232,9.652C671.063,286.604,673.738,287.22,665.935,291.325z"
               pointer-events="auto" id="path5858" />

          <rect id="rect12_1_" x="602.125" y="265.868" opacity="0" fill="#FFFFFF" stroke="#010202"
               stroke-miterlimit="10" enable-background="new    " width="73.17" height="17.149" pointer-events="auto"
               visibility="hidden">
          </rect>
     </g>
     <g id="CE" data-errors="0" hint-index="0" class="q" data-qtext="Ceará" data-qimg="null" data-wikipedialink=""
          data-infotext="" data-infoimgurl="" data-sayafter="">

          <linearGradient id="SVGID_19_" gradientUnits="userSpaceOnUse" x1="695.2888" y1="305.0723" x2="695.2888"
               y2="392.2804" gradientTransform="matrix(1 0 0 -1 0 583)">
               <stop offset="0" style="stop-color:#3FA9F5" id="stop5862" />
               <stop offset="1" style="stop-color:#00FFFF" id="stop5864" />
          </linearGradient>
          <path fill="#808080" stroke="#FFFFFF" stroke-width="0.5" stroke-miterlimit="10"
               d="M728.888,228.237 c-0.383,0.455-0.9,1.122-1.528,2.071c-1.431,2.145-3.082,3.291-5.548,5.966c-2.465,2.663-4.314,5.744-9.861,9.652 c-3.846,2.712-4.142,4.623-5.177,7.149c-0.469,1.122-1.086,2.354-2.22,3.834c-3.697,4.82,0,6.274,0.617,12.647 c0.345,3.512,0.431,4.955-0.186,5.855c-0.492,0.739-1.454,1.122-3.106,1.948c-3.697,1.849-5.744-1.023-12.942-5.547 c-7.187-4.524-5.338-2.058-11.711-2.058c-3.982,0-5.448-0.358-6.41-0.715c1.837-4.672,4.635-9.726,3.748-10.786 c-1.035-1.233-4.315-2.675-5.548-9.245c-1.232-6.57,1.024-5.954-1.849-12.327c-2.883-6.373-3.29-6.373-3.082-11.71 c0.198-5.338,6.362-3.698,4.315-9.245c-2.059-5.547-6.78-6.163-6.373-13.35c0.407-7.199-1.232-5.608,0.407-8.629 c0.677-1.233,1.072-2.256,1.306-3.019c7.927-0.05,16.507,0.072,19.242,1.787c4.931,3.082,16.025,9.245,20.746,13.35 c4.734,4.105,14.386,11.501,18.7,16.025C724.179,223.737,726.386,226.08,728.888,228.237z"
               pointer-events="auto" id="path5867" />

          <rect id="rect12_3_" x="658.704" y="205.655" opacity="0" fill="#FFFFFF" stroke="#010202"
               stroke-miterlimit="10" enable-background="new    " width="73.17" height="17.149" pointer-events="auto"
               visibility="hidden">
          </rect>
     </g>
     <g id="RN" data-errors="0" hint-index="0" class="q" data-qtext="Rio Grande do Norte" data-qimg="null"
          data-wikipedialink="" data-infotext="" data-infoimgurl="" data-sayafter="" inkscape:label="#RN">

          <linearGradient id="SVGID_20_" gradientUnits="userSpaceOnUse" x1="736.8271" y1="354.763" x2="736.8271"
               y2="318.3593" gradientTransform="matrix(1 0 0 -1 0 583)">
               <stop offset="0" style="stop-color:#00FF00" id="stop5871" />
               <stop offset="1" style="stop-color:#00C800" id="stop5873" />
          </linearGradient>
          <path fill="#808080" stroke="#FFFFFF" stroke-width="0.5" stroke-linejoin="round" stroke-miterlimit="10"
               d=" M766.879,262.887l-1.428,0.703c0,0-2.367-0.221-3.453-1.517c-1.071-1.294-2.588-1.294-6.04-1.294c-3.438,0-7.753-1.935-9.91-3.784 c-2.158-1.837-2.59,0.985-3.884,3.784c-1.293,2.81-5.177,4.746-5.497,3.451c-0.32-1.294-4.634-2.366-10.034-4.524 c-5.386-2.157,0.222-3.883,0.655-4.535c0.43-0.641,0.64-5.819-2.38-5.819c-3.007,0-2.798,3.231-6.028,7.557 c-3.241,4.326-7.125-0.444-8.85-2.169c-1.122-1.134-2.244-1.332-3.255-1.665c1.035-2.527,1.331-4.437,5.177-7.149 c5.547-3.908,7.396-6.989,9.861-9.652c2.466-2.675,4.117-3.821,5.548-5.966c0.628-0.949,1.145-1.615,1.528-2.071 c3.649,3.168,7.938,5.942,12.438,6.188c7.606,0.407,12.745-0.209,16.444,3.489c3.697,3.698,6.57,5.337,7.593,12.327 C765.991,254.493,766.546,258.289,766.879,262.887z"
               pointer-events="auto" id="path5876" />
     </g>
     <g id="PB" data-errors="0" hint-index="0" class="q" data-qtext="Paraíba" data-qimg="null" data-wikipedialink=""
          data-infotext="" data-infoimgurl="" data-sayafter="" inkscape:label="#PB">

          <linearGradient id="SVGID_21_" gradientUnits="userSpaceOnUse" x1="735.0734" y1="294.4502" x2="735.0734"
               y2="333.649" gradientTransform="matrix(1 0 0 -1 0 583)">
               <stop offset="0" style="stop-color:#FCEE21" id="stop5879" />
               <stop offset="1" style="stop-color:#D9E021" id="stop5881" />
          </linearGradient>
          <path fill="#808080" stroke="#FFFFFF" stroke-width="0.5" stroke-miterlimit="10"
               d="M767.212,273.044 c0,1.652-0.075,3.242-0.197,4.783c-0.753-0.149-1.713-0.543-2.207-1.516c-0.863-1.727-3.02-1.948-5.608,0 c-2.588,1.936-3.02,4.093-7.975,4.597c-4.969,0.506-6.262,1.22-11.439,2.084c-5.166,0.861-1.727,2.797-4.734,4.745 c-3.02,1.936-6.694,0-8.628-1.517c-1.948-1.502,1.934-6.028,3.192-9.725c1.256-3.698-1.689-2.995-2.552-3.204 c-0.863-0.223-6.68,1.294-9.048,4.634c-2.378,3.34-3.883,1.183-7.986,0c-3.439-0.998-3.07-1.01-5.043-2.515 c0.617-0.901,0.531-2.343,0.186-5.855c-0.617-6.373-4.314-7.827-0.617-12.647c1.134-1.48,1.751-2.712,2.22-3.834 c1.011,0.333,2.132,0.531,3.255,1.665c1.724,1.725,5.608,6.495,8.85,2.169c3.229-4.326,3.021-7.557,6.028-7.557 c3.02,0,2.81,5.179,2.38,5.819c-0.432,0.652-6.041,2.378-0.655,4.535c5.4,2.158,9.714,3.23,10.034,4.524 c0.32,1.295,4.204-0.64,5.497-3.451c1.294-2.799,1.727-5.621,3.884-3.784c2.157,1.849,6.472,3.784,9.91,3.784 c3.452,0,4.969,0,6.04,1.294c1.086,1.295,3.453,1.517,3.453,1.517l1.428-0.703C767.089,265.834,767.212,269.113,767.212,273.044z"
               pointer-events="auto" id="path5884" />
     </g>
     <g id="PE" data-errors="0" hint-index="0" class="q" data-qtext="Pernambuco" data-qimg="null" data-wikipedialink=""
          data-infotext="" data-infoimgurl="" data-sayafter="" inkscape:label="#PE">

          <linearGradient id="SVGID_22_" gradientUnits="userSpaceOnUse" x1="715.175" y1="275.6399" x2="715.175"
               y2="313.962" gradientTransform="matrix(1 0 0 -1 0 583)">
               <stop offset="0" style="stop-color:#F15A24" id="stop5887" />
               <stop offset="1" style="stop-color:#FF811E" id="stop5889" />
          </linearGradient>
          <path fill="#808080" stroke="#FFFFFF" stroke-width="0.5" stroke-miterlimit="10"
               d="M767.015,277.827 c-0.617,7.876-2.539,14.237-2.884,18.022c-0.259,2.908-0.617,4.721-1.972,7.273c-1.024-0.543-2.429-1.357-2.959-2.022 c-0.863-1.071-3.451-3.019-6.041-3.228c-2.588-0.223-4.314,1.071-5.817,2.797c-1.516,1.727-1.086,1.727-4.105,4.536 c-3.02,2.797-5.596,2.157-10.342,1.924c-4.746-0.235-4.968-4.512-7.987-7.1c-3.007-2.589-7.976-0.432-9.048,0 c-0.937,0.369-2.847,3.351-4.893,4.413c-1.603-3.219-4.451-4.772-6.966-6.263c-3.451-2.058-8.196-5.486-12.72-6.558 c-4.537-1.086-6.472,0.861-10.997,5.176c-4.535,4.302-3.241,6.459-7.987,7.976c-4.733,1.504-4.093-3.674-4.955-6.681 c-0.764-2.675-2.193-3.156-4.007-5.46c0.79-0.371,1.653-0.802,2.601-1.308c7.803-4.105,5.128-4.721,5.338-10.477 c0.21-5.745-2.872-4.512-1.232-9.652c0.221-0.703,0.493-1.43,0.776-2.157c0.962,0.357,2.428,0.715,6.41,0.715 c6.373,0,4.524-2.465,11.711,2.058c7.199,4.524,9.245,7.396,12.942,5.547c1.652-0.826,2.614-1.209,3.106-1.948 c1.973,1.505,1.604,1.517,5.043,2.515c4.103,1.183,5.608,3.34,7.986,0c2.367-3.341,8.185-4.858,9.048-4.634 c0.863,0.209,3.809-0.494,2.552,3.204c-1.258,3.698-5.14,8.223-3.192,9.725c1.934,1.517,5.609,3.453,8.628,1.517 c3.007-1.948-0.432-3.884,4.734-4.745c5.177-0.863,6.471-1.578,11.439-2.084c4.955-0.504,5.387-2.662,7.975-4.597 c2.589-1.948,4.745-1.727,5.608,0C765.302,277.285,766.262,277.679,767.015,277.827z"
               pointer-events="auto" id="path5892" />
     </g>
     <g id="BA" data-errors="0" hint-index="0" class="q" data-qtext="Bahia" data-qimg="null" data-wikipedialink=""
          data-infotext="" data-infoimgurl="" data-sayafter="">
          <path fill="#808080" stroke="#FFFFFF" stroke-width="0.5" stroke-miterlimit="10"
               d="M722.331,345.92 c-0.259,0.444-0.506,0.875-0.728,1.294c-2.465,4.721-6.361,8.013-9.861,12.117c-3.489,4.105-4.314,4.105-10.059,8.222 c-5.756,4.104-11.71,8.418-11.71,15.199c0,6.78-0.21,16.641,1.023,24.863c1.232,8.21,2.872,12.524-1.442,20.339 c-4.314,7.803-6.361,7.186-6.361,14.582s-2.675,10.687-5.547,14.386c-0.568,0.727-1.048,1.541-1.442,2.428 c-0.617-0.135-1.406-0.42-1.986-0.961c-1.109-1.049-1.934-1.788-3.796-3.341c-1.849-1.566-1.479-2.38-1.775-3.724 c-0.172-0.788-0.494-0.937-0.937-1.023c0.172-0.654-0.247-1.393-0.358-2.059c-0.197-1.195-4.191-4.795-5.399-7.79 c-1.197-2.996,2.403-5.78,4.202-8.185c1.788-2.392,4.193-5.387,6.584-7.582c2.403-2.206,3.193-6.397,2.193-7.199 c-0.998-0.789-10.182-4.586-11.575-5.99c-1.404-1.393-4.401,0-8.185,0c-3.796,0-2.206-1.997-3.008-4.993 c-0.788-2.996-4.979-3.193-7.778-4.586c-2.799-1.404-5.793-1.404-10.59-2.995c-4.794-1.603-4.19-2.996-7.986-5.991 c-3.797-2.995-6.583,0.394-11.575,0.394c-4.993,0-0.801-5.386-1.997-9.183c-1.208-3.797-9.393,0.801-13.128,2.601 c-3.748,1.787-8.444,3.193-11.638,5.189c-3.204,1.997-2.797,3.797-7.789,4.993c-4.993,1.195-3.797-4.598-4.401-8.185 c-0.369-2.244-0.973-3.046-1.762-3.587c0.234-0.568,0.061-1.467-0.79-3.907c-2.158-6.225-5.941-2.983-2.158-10.28 c3.773-7.299,2.171-6.966,3.046-9.726c0.332-1.01,0.468-1.8,0.492-2.379c0.136-0.124,0.273-0.247,0.396-0.383 c2.465-2.638-3.908-2.231-3.489-6.545c0.407-4.314,1.639-6.78,2.872-8.222c1.232-1.43,5.251,0,1.183-4.512 c-4.055-4.524-6.114-2.465-4.265-8.222s1.811-8.419,6.041-10.687c2.724-1.454,4.056-3.76,4.351-5.251 c0.013,0,0.013-0.012,0.013-0.012c0.049-0.075,0.073-0.149,0.111-0.234c2.218,1.035,4.178,2.576,6.126,4.881 c2.256,2.675,3.908,5.966,7.397,4.931c3.487-1.023,9.454-3.489,13.559-3.489c4.104,0,6.57-1.122,6.989-5.596 c0.407-4.475,0.407-13.72,5.338-14.952s8.838-0.197,10.07,2.058s1.639,4.105,7.396,1.442c5.745-2.675,4.513-4.931,11.501-7.199 c6.139-1.984,7.989-1.59,13.633-4.24c1.814,2.304,3.243,2.785,4.007,5.46c0.862,3.007,0.222,8.184,4.955,6.681 c4.746-1.517,3.452-3.674,7.987-7.976c4.525-4.315,6.46-6.262,10.997-5.176c4.524,1.071,9.269,4.499,12.72,6.558 c2.515,1.49,5.363,3.043,6.966,6.263c0.443,0.874,0.788,1.861,1.01,3.007c0.086,0.443,0.161,0.925,0.21,1.418 c0.652,6.472,1.516,7.333,2.158,12.721c0.652,5.399-3.021,6.039-4.093,9.27c-1.073,3.24,0.431,8.407,2.158,11.217 c1.724,2.811,4.093,4.093,5.817,3.883C719.397,345.809,721.246,345.871,722.331,345.92z"
               pointer-events="auto" id="path5895" />
     </g>
     <g id="SE" data-errors="0" hint-index="0" class="q" data-qtext="Sergipe" data-qimg="null" data-wikipedialink=""
          data-infotext="" data-infoimgurl="" data-sayafter="">

          <linearGradient id="SVGID_23_" gradientUnits="userSpaceOnUse" x1="723.7339" y1="237.0199" x2="723.7339"
               y2="275.551" gradientTransform="matrix(1 0 0 -1 0 583)">
               <stop offset="0" style="stop-color:#3FA9F5" id="stop5898" />
               <stop offset="1" style="stop-color:#00FFFF" id="stop5900" />
          </linearGradient>
          <path fill="#808080" stroke="#FFFFFF" stroke-width="0.5" stroke-miterlimit="10"
               d="M737.578,326.21 c-1.183,0.899-2.379,2.132-3.649,3.945c-3.932,5.622-8.887,11.228-11.599,15.766c-1.084-0.049-2.934-0.111-4.105,0.037 c-1.724,0.21-4.093-1.073-5.817-3.883c-1.727-2.81-3.231-7.976-2.158-11.217c1.072-3.231,4.745-3.872,4.093-9.27 c-0.642-5.387-1.505-6.249-2.158-12.721c-0.049-0.494-0.124-0.975-0.21-1.418c0.542,0.383,1.443,1.171,3.23,2.711 c4.746,4.093,10.145,3.835,12.721,5.362c2.589,1.541,3.242,1.541,5.831,4.561C735.581,322.203,736.223,324.644,737.578,326.21z"
               pointer-events="auto" id="path5903" />
     </g>
     <g id="AL" data-errors="0" hint-index="0" class="q" data-qtext="Alagoas" data-qimg="null" data-wikipedialink=""
          data-infotext="" data-infoimgurl="" data-sayafter="" inkscape:label="#AL">

          <linearGradient id="SVGID_24_" gradientUnits="userSpaceOnUse" x1="736.5624" y1="256.79" x2="736.5624"
               y2="285.152" gradientTransform="matrix(1 0 0 -1 0 583)">
               <stop offset="0" style="stop-color:#FCEE21" id="stop5906" />
               <stop offset="1" style="stop-color:#D9E021" id="stop5908" />
          </linearGradient>
          <path fill="#808080" stroke="#FFFFFF" stroke-width="0.5" stroke-miterlimit="10"
               d="M762.159,303.122 c-0.765,1.417-1.825,3.07-3.366,5.263c-4.314,6.163-7.606,9.652-12.327,12.943c-3.328,2.318-6.052,2.687-8.887,4.882 c-1.355-1.566-1.997-4.006-3.821-6.126c-2.589-3.02-3.242-3.02-5.831-4.561c-2.576-1.528-7.975-1.27-12.721-5.362 c-1.786-1.541-2.687-2.328-3.23-2.711c-0.222-1.146-0.567-2.133-1.01-3.007c2.047-1.062,3.957-4.045,4.893-4.413 c1.072-0.432,6.041-2.589,9.048,0c3.02,2.588,3.241,6.865,7.987,7.1c4.746,0.233,7.322,0.874,10.342-1.924 c3.02-2.809,2.59-2.809,4.105-4.536c1.503-1.726,3.23-3.02,5.817-2.797c2.59,0.209,5.177,2.157,6.041,3.228 C759.729,301.765,761.135,302.579,762.159,303.122z"
               pointer-events="auto" id="path5911" />
     </g>
</svg>